HIERARCHY
ROOT body_world
{
	OFFSET 0.00000 0.00000 0.00000
	CHANNELS 6 Xposition Yposition Zposition Zrotation Xrotation Yrotation
	JOINT b_root
	{
		OFFSET 0.00000 91.50000 0.00000
		CHANNELS 6 Xposition Yposition Zposition Zrotation Xrotation Yrotation
		JOINT b_spine0
		{
			OFFSET 0.00000 2.52216 -2.92039
			CHANNELS 6 Xposition Yposition Zposition Zrotation Xrotation Yrotation
			JOINT b_spine1
			{
				OFFSET 0.00000 10.88420 2.18712
				CHANNELS 6 Xposition Yposition Zposition Zrotation Xrotation Yrotation
				JOINT b_spine2
				{
					OFFSET 0.00000 10.37060 -4.27670
					CHANNELS 6 Xposition Yposition Zposition Zrotation Xrotation Yrotation
					JOINT b_spine3
					{
						OFFSET 0.00000 18.40230 -1.77629
						CHANNELS 6 Xposition Yposition Zposition Zrotation Xrotation Yrotation
						JOINT b_neck0
						{
							OFFSET 0.00000 12.77480 3.30221
							CHANNELS 6 Xposition Yposition Zposition Zrotation Xrotation Yrotation
							JOINT b_head
							{
								OFFSET 0.00000 6.34510 3.18585
								CHANNELS 6 Xposition Yposition Zposition Zrotation Xrotation Yrotation
								JOINT b_head_null
								{
									OFFSET 0.00000 19.88100 4.10307
									CHANNELS 6 Xposition Yposition Zposition Zrotation Xrotation Yrotation
									End Site
									{
										OFFSET 0.00000 0.00000 0.00000
									}
								}
								JOINT b_l_eye
								{
									OFFSET 3.40000 7.00765 8.59377
									CHANNELS 6 Xposition Yposition Zposition Zrotation Xrotation Yrotation
									End Site
									{
										OFFSET 0.02382 -0.23927 1.68141
									}
								}
								JOINT b_r_eye
								{
									OFFSET -3.30000 6.98743 8.69171
									CHANNELS 6 Xposition Yposition Zposition Zrotation Xrotation Yrotation
									End Site
									{
										OFFSET 0.02085 -0.23926 1.68137
									}
								}
								JOINT b_jaw
								{
									OFFSET 0.00000 5.04600 2.26669
									CHANNELS 6 Xposition Yposition Zposition Zrotation Xrotation Yrotation
									JOINT b_jaw_null
									{
										OFFSET 0.00000 -8.86421 6.07830
										CHANNELS 6 Xposition Yposition Zposition Zrotation Xrotation Yrotation
										End Site
										{
											OFFSET 0.00000 0.00000 0.00000
										}
									}
									JOINT b_teeth
									{
										OFFSET 0.10000 -6.13996 2.92418
										CHANNELS 6 Xposition Yposition Zposition Zrotation Xrotation Yrotation
										End Site
										{
											OFFSET 0.00000 0.00000 0.00000
										}
									}
									JOINT b_tongue0
									{
										OFFSET 0.10000 -6.13996 2.92418
										CHANNELS 6 Xposition Yposition Zposition Zrotation Xrotation Yrotation
										JOINT b_tongue1
										{
											OFFSET 0.00000 -0.12728 -1.74178
											CHANNELS 6 Xposition Yposition Zposition Zrotation Xrotation Yrotation
											JOINT b_tongue2
											{
												OFFSET 0.01033 0.78454 2.48080
												CHANNELS 6 Xposition Yposition Zposition Zrotation Xrotation Yrotation
												JOINT b_tongue3
												{
													OFFSET 0.02113 -0.48229 2.14871
													CHANNELS 6 Xposition Yposition Zposition Zrotation Xrotation Yrotation
													JOINT b_tongue4
													{
														OFFSET 0.00143 -0.17828 0.47772
														CHANNELS 6 Xposition Yposition Zposition Zrotation Xrotation Yrotation
														JOINT b_l_tongue4_1
														{
															OFFSET 0.20148 -0.09575 -0.01540
															CHANNELS 6 Xposition Yposition Zposition Zrotation Xrotation Yrotation
															End Site
															{
																OFFSET 0.22487 -0.07658 -0.01600
															}
														}
														JOINT b_r_tongue4_1
														{
															OFFSET -0.19848 -0.10168 -0.01642
															CHANNELS 6 Xposition Yposition Zposition Zrotation Xrotation Yrotation
															End Site
															{
																OFFSET -0.22507 -0.08324 -0.01714
															}
														}
													}
													JOINT b_l_tongue3_1
													{
														OFFSET 0.20148 -0.09575 -0.01540
														CHANNELS 6 Xposition Yposition Zposition Zrotation Xrotation Yrotation
														End Site
														{
															OFFSET 0.43655 -0.07345 -0.01547
														}
													}
													JOINT b_r_tongue3_1
													{
														OFFSET -0.19848 -0.10168 -0.01642
														CHANNELS 6 Xposition Yposition Zposition Zrotation Xrotation Yrotation
														End Site
														{
															OFFSET -0.43675 -0.08638 -0.01768
														}
													}
												}
												JOINT b_l_tongue2_1
												{
													OFFSET 0.20163 -0.09487 -0.01862
													CHANNELS 6 Xposition Yposition Zposition Zrotation Xrotation Yrotation
													End Site
													{
														OFFSET 0.64962 -0.06809 -0.02138
													}
												}
												JOINT b_r_tongue2_1
												{
													OFFSET -0.19830 -0.10203 -0.01630
													CHANNELS 6 Xposition Yposition Zposition Zrotation Xrotation Yrotation
													End Site
													{
														OFFSET -0.64984 -0.09177 -0.01160
													}
												}
											}
											JOINT b_r_tongue1_1
											{
												OFFSET -0.19765 -0.09820 0.03591
												CHANNELS 6 Xposition Yposition Zposition Zrotation Xrotation Yrotation
												End Site
												{
													OFFSET -0.75924 -0.09552 -0.00843
												}
											}
											JOINT b_l_tongue1_1
											{
												OFFSET 0.20224 -0.08999 0.03165
												CHANNELS 6 Xposition Yposition Zposition Zrotation Xrotation Yrotation
												End Site
												{
													OFFSET 0.75910 -0.06432 -0.02462
												}
											}
										}
									}
								}
							}
						}
						JOINT b_r_shoulder
						{
							OFFSET -2.80000 7.18393 9.08687
							CHANNELS 6 Xposition Yposition Zposition Zrotation Xrotation Yrotation
							JOINT p_r_scap
							{
								OFFSET -16.05540 -0.96660 -5.09514
								CHANNELS 6 Xposition Yposition Zposition Zrotation Xrotation Yrotation
								JOINT b_r_arm
								{
									OFFSET -0.37421 -4.11697 -0.50050
									CHANNELS 6 Xposition Yposition Zposition Zrotation Xrotation Yrotation
									JOINT b_r_arm_twist
									{
										OFFSET 0.00000 0.00000 0.00000
										CHANNELS 6 Xposition Yposition Zposition Zrotation Xrotation Yrotation
										JOINT b_r_forearm
										{
											OFFSET -25.58110 -0.71761 -0.67246
											CHANNELS 6 Xposition Yposition Zposition Zrotation Xrotation Yrotation
											JOINT b_r_wrist_twist
											{
												OFFSET -24.78170 -0.69519 -0.65144
												CHANNELS 6 Xposition Yposition Zposition Zrotation Xrotation Yrotation
												JOINT b_r_wrist
												{
													OFFSET -1.98009 -0.26602 1.88639
													CHANNELS 6 Xposition Yposition Zposition Zrotation Xrotation Yrotation
													JOINT b_r_index1
													{
														OFFSET -8.95160 -0.46243 2.31625
														CHANNELS 6 Xposition Yposition Zposition Zrotation Xrotation Yrotation
														JOINT b_r_index2
														{
															OFFSET -4.49994 -0.01610 0.01724
															CHANNELS 6 Xposition Yposition Zposition Zrotation Xrotation Yrotation
															JOINT b_r_index3
															{
																OFFSET -2.59996 -0.00930 0.00996
																CHANNELS 6 Xposition Yposition Zposition Zrotation Xrotation Yrotation
																End Site
																{
																	OFFSET -1.25012 -0.00447 0.00479
																}
															}
														}
													}
													JOINT b_r_ring1
													{
														OFFSET -7.97271 -0.33432 -2.08664
														CHANNELS 6 Xposition Yposition Zposition Zrotation Xrotation Yrotation
														JOINT b_r_ring2
														{
															OFFSET -4.49994 -0.01610 0.01724
															CHANNELS 6 Xposition Yposition Zposition Zrotation Xrotation Yrotation
															JOINT b_r_ring3
															{
																OFFSET -2.99996 -0.01073 0.01149
																CHANNELS 6 Xposition Yposition Zposition Zrotation Xrotation Yrotation
																End Site
																{
																	OFFSET -1.26270 -0.00452 0.00484
																}
															}
														}
													}
													JOINT b_r_middle1
													{
														OFFSET -8.72799 0.02962 0.03636
														CHANNELS 6 Xposition Yposition Zposition Zrotation Xrotation Yrotation
														JOINT b_r_middle2
														{
															OFFSET -5.09993 -0.01825 0.01953
															CHANNELS 6 Xposition Yposition Zposition Zrotation Xrotation Yrotation
															JOINT b_r_middle3
															{
																OFFSET -3.09996 -0.01109 0.01187
																CHANNELS 6 Xposition Yposition Zposition Zrotation Xrotation Yrotation
																End Site
																{
																	OFFSET -1.37856 -0.00493 0.00528
																}
															}
														}
													}
													JOINT b_r_pinky1
													{
														OFFSET -7.05086 -1.12271 -4.03050
														CHANNELS 6 Xposition Yposition Zposition Zrotation Xrotation Yrotation
														JOINT b_r_pinky2
														{
															OFFSET -3.39995 -0.01216 0.01302
															CHANNELS 6 Xposition Yposition Zposition Zrotation Xrotation Yrotation
															JOINT b_r_pinky3
															{
																OFFSET -2.09997 -0.00751 0.00804
																CHANNELS 6 Xposition Yposition Zposition Zrotation Xrotation Yrotation
																End Site
																{
																	OFFSET -1.30944 -0.00469 0.00502
																}
															}
														}
													}
													JOINT b_r_thumb0
													{
														OFFSET -1.02679 -0.35312 0.78804
														CHANNELS 6 Xposition Yposition Zposition Zrotation Xrotation Yrotation
														JOINT b_r_thumb1
														{
															OFFSET -1.04860 -2.13714 1.65622
															CHANNELS 6 Xposition Yposition Zposition Zrotation Xrotation Yrotation
															JOINT b_r_thumb2
															{
																OFFSET -4.19196 -0.71130 1.47361
																CHANNELS 6 Xposition Yposition Zposition Zrotation Xrotation Yrotation
																JOINT b_r_thumb3
																{
																	OFFSET -3.79307 -0.05136 0.22358
																	CHANNELS 6 Xposition Yposition Zposition Zrotation Xrotation Yrotation
																	End Site
																	{
																		OFFSET -1.92166 -0.02602 0.11327
																	}
																}
															}
														}
													}
												}
											}
										}
									}
								}
							}
						}
						JOINT b_l_shoulder
						{
							OFFSET 2.80000 7.18393 9.08687
							CHANNELS 6 Xposition Yposition Zposition Zrotation Xrotation Yrotation
							JOINT p_l_delt
							{
								OFFSET 14.83770 0.12736 -4.10440
								CHANNELS 6 Xposition Yposition Zposition Zrotation Xrotation Yrotation
								End Site
								{
									OFFSET 0.00000 0.00000 0.00000
								}
							}
							JOINT p_l_scap
							{
								OFFSET 16.05540 -0.98247 -5.09210
								CHANNELS 6 Xposition Yposition Zposition Zrotation Xrotation Yrotation
								JOINT b_l_arm
								{
									OFFSET 0.31067 -4.17648 -0.50051
									CHANNELS 6 Xposition Yposition Zposition Zrotation Xrotation Yrotation
									JOINT b_l_arm_twist
									{
										OFFSET 0.00000 0.00000 0.00000
										CHANNELS 6 Xposition Yposition Zposition Zrotation Xrotation Yrotation
										JOINT b_l_forearm
										{
											OFFSET 25.58390 -0.59335 -0.68858
											CHANNELS 6 Xposition Yposition Zposition Zrotation Xrotation Yrotation
											JOINT b_l_wrist_twist
											{
												OFFSET 24.78440 -0.57480 -0.66706
												CHANNELS 6 Xposition Yposition Zposition Zrotation Xrotation Yrotation
												JOINT b_l_wrist
												{
													OFFSET 2.06093 0.07483 1.81576
													CHANNELS 6 Xposition Yposition Zposition Zrotation Xrotation Yrotation
													JOINT b_l_thumb0
													{
														OFFSET 1.01479 -0.37734 0.79235
														CHANNELS 6 Xposition Yposition Zposition Zrotation Xrotation Yrotation
														JOINT b_l_thumb1
														{
															OFFSET 0.98657 -2.15795 1.66732
															CHANNELS 6 Xposition Yposition Zposition Zrotation Xrotation Yrotation
															JOINT b_l_thumb2
															{
																OFFSET 4.16734 -0.81714 1.48847
																CHANNELS 6 Xposition Yposition Zposition Zrotation Xrotation Yrotation
																JOINT b_l_thumb3
																{
																	OFFSET 3.78971 -0.15162 0.23480
																	CHANNELS 6 Xposition Yposition Zposition Zrotation Xrotation Yrotation
																	End Site
																	{
																		OFFSET 1.91996 -0.07681 0.11896
																	}
																}
															}
														}
													}
													JOINT b_l_index1
													{
														OFFSET 8.92954 -0.69203 2.34400
														CHANNELS 6 Xposition Yposition Zposition Zrotation Xrotation Yrotation
														JOINT b_l_index2
														{
															OFFSET 4.49784 -0.13601 0.03038
															CHANNELS 6 Xposition Yposition Zposition Zrotation Xrotation Yrotation
															JOINT b_l_index3
															{
																OFFSET 2.59875 -0.07859 0.01755
																CHANNELS 6 Xposition Yposition Zposition Zrotation Xrotation Yrotation
																End Site
																{
																	OFFSET 1.24954 -0.03779 0.00844
																}
															}
														}
													}
													JOINT b_l_middle1
													{
														OFFSET 8.72554 -0.20297 0.06163
														CHANNELS 6 Xposition Yposition Zposition Zrotation Xrotation Yrotation
														JOINT b_l_middle2
														{
															OFFSET 5.09755 -0.15415 0.03443
															CHANNELS 6 Xposition Yposition Zposition Zrotation Xrotation Yrotation
															JOINT b_l_middle3
															{
																OFFSET 3.09851 -0.09370 0.02093
																CHANNELS 6 Xposition Yposition Zposition Zrotation Xrotation Yrotation
																End Site
																{
																	OFFSET 1.37792 -0.04167 0.00931
																}
															}
														}
													}
													JOINT b_l_ring1
													{
														OFFSET 7.96678 -0.55481 -2.06217
														CHANNELS 6 Xposition Yposition Zposition Zrotation Xrotation Yrotation
														JOINT b_l_ring2
														{
															OFFSET 4.49784 -0.13601 0.03038
															CHANNELS 6 Xposition Yposition Zposition Zrotation Xrotation Yrotation
															JOINT b_l_ring3
															{
																OFFSET 2.99856 -0.09068 0.02025
																CHANNELS 6 Xposition Yposition Zposition Zrotation Xrotation Yrotation
																End Site
																{
																	OFFSET 1.26211 -0.03817 0.00853
																}
															}
														}
													}
													JOINT b_l_pinky1
													{
														OFFSET 7.02968 -1.32581 -4.00572
														CHANNELS 6 Xposition Yposition Zposition Zrotation Xrotation Yrotation
														JOINT b_l_pinky2
														{
															OFFSET 3.39837 -0.10277 0.02296
															CHANNELS 6 Xposition Yposition Zposition Zrotation Xrotation Yrotation
															JOINT b_l_pinky3
															{
																OFFSET 2.09899 -0.06347 0.01418
																CHANNELS 6 Xposition Yposition Zposition Zrotation Xrotation Yrotation
																End Site
																{
																	OFFSET 1.30883 -0.03958 0.00884
																}
															}
														}
													}
												}
											}
										}
									}
								}
							}
						}
					}
					JOINT p_navel
					{
						OFFSET 0.00000 -11.87180 1.81975
						CHANNELS 6 Xposition Yposition Zposition Zrotation Xrotation Yrotation
						End Site
						{
							OFFSET 0.00000 0.00000 0.00000
						}
					}
				}
			}
		}
		JOINT b_r_upleg
		{
			OFFSET -8.70000 -7.18117 -1.31560
			CHANNELS 6 Xposition Yposition Zposition Zrotation Xrotation Yrotation
			JOINT b_r_leg
			{
				OFFSET 0.00000 -37.29980 0.16253
				CHANNELS 6 Xposition Yposition Zposition Zrotation Xrotation Yrotation
				JOINT b_r_foot_twist
				{
					OFFSET 0.00000 -39.87130 -3.20568
					CHANNELS 6 Xposition Yposition Zposition Zrotation Xrotation Yrotation
					JOINT b_r_foot
					{
						OFFSET 0.00000 0.00000 0.00000
						CHANNELS 6 Xposition Yposition Zposition Zrotation Xrotation Yrotation
						End Site
						{
							OFFSET 0.09399 -6.47053 16.93280
						}
					}
				}
			}
		}
		JOINT b_l_upleg
		{
			OFFSET 8.70000 -7.18117 -1.31560
			CHANNELS 6 Xposition Yposition Zposition Zrotation Xrotation Yrotation
			JOINT b_l_leg
			{
				OFFSET 0.00000 -37.19910 0.26182
				CHANNELS 6 Xposition Yposition Zposition Zrotation Xrotation Yrotation
				JOINT b_l_foot_twist
				{
					OFFSET 0.00000 -39.87130 -3.20568
					CHANNELS 6 Xposition Yposition Zposition Zrotation Xrotation Yrotation
					JOINT b_l_foot
					{
						OFFSET 0.00000 0.00000 0.00000
						CHANNELS 6 Xposition Yposition Zposition Zrotation Xrotation Yrotation
						End Site
						{
							OFFSET -0.03062 -6.08018 15.88790
						}
					}
				}
			}
		}
	}
}
MOTION
Frames: 3
Frame Time: 0.03333
-1.39 -0.00 4.26 -0.00 0.00 0.00 0.00 90.36 0.00 1.19 -3.07 12.13 0.00 2.52 -2.92 0.55 1.88 -0.11 0.00 10.88 2.19 0.54 1.88 -0.16 0.00 10.37 -4.28 2.21 7.51 -0.36 0.00 18.40 -1.78 2.21 7.51 -0.36 0.00 12.77 3.30 3.48 -12.85 1.62 0.00 6.35 3.19 0.11 -25.57 2.01 0.00 19.88 4.10 -0.00 0.00 0.00 3.40 7.01 8.59 0.00 0.01 0.00 -3.30 6.99 8.69 -0.00 -0.00 0.00 0.00 5.05 2.27 -0.00 0.00 0.00 0.00 -8.86 6.08 0.00 0.00 -0.00 0.10 -6.14 2.92 0.00 0.00 -0.00 0.10 -6.14 2.92 -0.00 0.00 -0.00 0.00 -0.13 -1.74 0.00 -0.00 -0.00 0.01 0.78 2.48 -0.00 -0.00 0.04 0.02 -0.48 2.15 -0.00 0.00 -0.00 0.00 -0.18 0.48 0.00 0.00 0.00 0.20 -0.10 -0.02 -0.00 0.00 0.00 -0.20 -0.10 -0.02 -0.00 -0.00 -0.00 0.20 -0.10 -0.02 0.00 -0.00 0.00 -0.20 -0.10 -0.02 -0.00 0.00 -0.00 0.20 -0.09 -0.02 0.00 0.00 -0.00 -0.20 -0.10 -0.02 0.00 0.00 0.00 -0.20 -0.10 0.04 -0.00 0.01 0.00 0.20 -0.09 0.03 -0.00 -0.00 0.00 -2.80 7.18 9.09 19.44 0.02 0.06 -16.06 -0.97 -5.10 0.00 -0.00 -0.00 -0.37 -4.12 -0.50 54.58 -1.62 8.52 0.00 0.00 0.00 0.40 17.69 0.45 -25.58 -0.72 -0.67 -6.20 -5.14 22.07 -24.78 -0.70 -0.65 -3.91 -72.59 -10.65 -1.98 -0.27 1.89 -1.35 72.72 -2.22 -8.95 -0.46 2.32 21.39 -0.95 -6.53 -4.50 -0.02 0.02 21.40 1.83 -0.35 -2.60 -0.01 0.01 14.85 1.32 -0.18 -7.97 -0.33 -2.09 27.50 -12.38 -0.48 -4.50 -0.02 0.02 19.45 -1.72 0.31 -3.00 -0.01 0.01 14.93 -1.33 0.17 -8.73 0.03 0.04 28.66 0.11 -2.72 -5.10 -0.02 0.02 19.44 0.00 0.01 -3.10 -0.01 0.01 17.31 0.00 0.00 -7.05 -1.12 -4.03 13.02 -20.80 -4.43 -3.40 -0.01 0.01 18.25 -4.01 0.67 -2.10 -0.01 0.01 14.23 -3.14 0.41 -1.03 -0.35 0.79 0.00 0.00 0.00 -1.05 -2.14 1.66 -0.02 38.99 12.68 -4.19 -0.71 1.47 -0.61 -1.00 -11.31 -3.79 -0.05 0.22 11.44 2.13 -7.11 2.80 7.18 9.09 -18.07 -0.86 2.67 14.84 0.13 -4.10 -0.00 -0.00 0.00 16.06 -0.98 -5.09 0.00 0.01 -0.00 0.31 -4.18 -0.50 -60.25 11.57 -14.07 0.00 0.00 0.00 -0.67 29.58 -0.53 25.58 -0.59 -0.69 3.15 -23.67 -17.00 24.78 -0.57 -0.67 1.25 -51.09 6.49 2.06 0.07 1.82 -1.13 51.15 0.30 1.01 -0.38 0.79 -0.01 -0.01 -0.00 0.99 -2.16 1.67 -2.95 43.22 -8.39 4.17 -0.82 1.49 -2.79 -0.22 10.52 3.79 -0.15 0.23 -13.11 2.29 8.17 8.93 -0.69 2.34 -22.92 1.50 6.67 4.50 -0.14 0.03 -21.31 1.78 0.34 2.60 -0.08 0.02 -13.96 1.25 0.15 8.73 -0.20 0.06 -23.67 0.11 4.53 5.10 -0.15 0.03 -20.62 0.00 0.00 3.10 -0.09 0.02 -16.71 0.00 0.00 7.97 -0.55 -2.06 -18.08 -8.65 3.33 4.50 -0.14 0.03 -17.60 -1.52 -0.25 3.00 -0.09 0.02 -13.03 -1.16 -0.14 7.03 -1.33 -4.01 -5.50 -16.28 8.19 3.40 -0.10 0.02 -16.40 -3.60 -0.55 2.10 -0.06 0.01 -16.94 -3.72 -0.57 0.00 -11.87 1.82 -0.00 -0.00 -0.00 -8.70 -7.18 -1.32 -0.10 5.67 -9.96 0.00 -37.30 0.16 -0.06 2.16 -0.06 0.00 -39.87 -3.21 0.00 0.00 0.00 0.00 0.00 0.00 2.75 -7.24 -14.31 8.70 -7.18 -1.32 2.72 2.05 -5.98 0.00 -37.20 0.26 0.01 -0.62 0.12 0.00 -39.87 -3.21 0.00 0.01 -0.00 0.00 0.00 0.00 -10.97 -2.94 -3.74
-1.32 -0.00 4.37 -0.00 0.00 0.00 0.00 90.36 0.00 1.23 -3.21 12.09 0.00 2.52 -2.92 0.50 1.89 -0.13 0.00 10.88 2.19 0.49 1.89 -0.18 0.00 10.37 -4.28 2.25 7.57 -0.38 0.00 18.40 -1.78 2.25 7.57 -0.38 0.00 12.77 3.30 3.54 -12.64 1.55 0.00 6.35 3.19 0.11 -25.91 1.86 0.00 19.88 4.10 -0.00 0.00 0.00 3.40 7.01 8.59 0.00 0.01 0.00 -3.30 6.99 8.69 -0.00 -0.00 0.00 0.00 5.05 2.27 -0.00 0.00 0.00 0.00 -8.86 6.08 0.00 0.00 -0.00 0.10 -6.14 2.92 0.00 0.00 -0.00 0.10 -6.14 2.92 -0.00 0.00 -0.00 0.00 -0.13 -1.74 0.00 -0.00 -0.00 0.01 0.78 2.48 -0.00 -0.00 0.04 0.02 -0.48 2.15 -0.00 0.00 -0.00 0.00 -0.18 0.48 0.00 0.00 0.00 0.20 -0.10 -0.02 -0.00 0.00 0.00 -0.20 -0.10 -0.02 -0.00 -0.00 -0.00 0.20 -0.10 -0.02 0.00 -0.00 0.00 -0.20 -0.10 -0.02 -0.00 0.00 -0.00 0.20 -0.09 -0.02 0.00 0.00 -0.00 -0.20 -0.10 -0.02 0.00 0.00 0.00 -0.20 -0.10 0.04 -0.00 0.01 0.00 0.20 -0.09 0.03 -0.00 -0.00 0.00 -2.80 7.18 9.09 19.44 0.02 0.06 -16.06 -0.97 -5.10 0.00 -0.00 -0.00 -0.37 -4.12 -0.50 54.60 -1.57 8.59 0.00 0.00 0.00 0.40 17.69 0.45 -25.58 -0.72 -0.67 -6.13 -5.15 21.81 -24.78 -0.70 -0.65 -3.91 -72.59 -10.65 -1.98 -0.27 1.89 -1.58 72.72 -2.04 -8.95 -0.46 2.32 21.31 -0.98 -6.52 -4.50 -0.02 0.02 21.27 1.82 -0.34 -2.60 -0.01 0.01 14.76 1.31 -0.17 -7.97 -0.33 -2.09 27.52 -12.37 -0.46 -4.50 -0.02 0.02 19.38 -1.71 0.31 -3.00 -0.01 0.01 14.92 -1.33 0.17 -8.73 0.03 0.04 28.59 0.10 -2.73 -5.10 -0.02 0.02 19.33 0.00 0.01 -3.10 -0.01 0.01 17.25 0.00 0.00 -7.05 -1.12 -4.03 13.15 -20.83 -4.34 -3.40 -0.01 0.01 18.28 -4.02 0.67 -2.10 -0.01 0.01 14.24 -3.14 0.41 -1.03 -0.35 0.79 0.00 0.00 0.00 -1.05 -2.14 1.66 0.02 38.98 12.61 -4.19 -0.71 1.47 -0.59 -1.00 -11.36 -3.79 -0.05 0.22 11.46 2.13 -7.12 2.80 7.18 9.09 -18.08 -0.88 2.73 14.84 0.13 -4.10 -0.00 -0.00 0.00 16.06 -0.98 -5.09 0.00 0.01 -0.00 0.31 -4.18 -0.50 -60.23 11.74 -14.14 0.00 0.00 0.00 -0.67 29.58 -0.53 25.58 -0.59 -0.69 3.19 -23.66 -16.66 24.78 -0.57 -0.67 1.25 -51.09 6.49 2.06 0.07 1.82 -1.07 51.14 0.23 1.01 -0.38 0.79 -0.01 -0.01 -0.00 0.99 -2.16 1.67 -3.05 43.32 -8.26 4.17 -0.82 1.49 -2.92 -0.20 10.56 3.79 -0.15 0.23 -13.19 2.30 8.23 8.93 -0.69 2.34 -23.01 1.53 6.70 4.50 -0.14 0.03 -21.39 1.79 0.34 2.60 -0.08 0.02 -14.03 1.26 0.15 8.73 -0.20 0.06 -23.63 0.12 4.55 5.10 -0.15 0.03 -20.62 0.00 0.00 3.10 -0.09 0.02 -16.65 0.00 0.00 7.97 -0.55 -2.06 -17.99 -8.59 3.34 4.50 -0.14 0.03 -17.53 -1.52 -0.25 3.00 -0.09 0.02 -12.97 -1.16 -0.14 7.03 -1.33 -4.01 -5.34 -16.18 8.17 3.40 -0.10 0.02 -16.30 -3.58 -0.54 2.10 -0.06 0.01 -16.91 -3.72 -0.57 0.00 -11.87 1.82 -0.00 -0.00 -0.00 -8.70 -7.18 -1.32 -0.19 5.75 -10.01 0.00 -37.30 0.16 -0.06 2.29 -0.06 0.00 -39.87 -3.21 0.00 0.00 0.00 0.00 0.00 0.00 2.76 -7.26 -14.31 8.70 -7.18 -1.32 2.73 2.18 -6.04 0.00 -37.20 0.26 0.01 -0.63 0.12 0.00 -39.87 -3.21 0.00 0.01 -0.00 0.00 0.00 0.00 -11.02 -2.92 -3.85
-1.28 -0.00 4.40 -0.00 0.00 0.00 0.00 90.36 0.00 1.25 -3.27 12.03 0.00 2.52 -2.92 0.47 1.91 -0.15 0.00 10.88 2.19 0.46 1.91 -0.19 0.00 10.37 -4.28 2.27 7.59 -0.39 0.00 18.40 -1.78 2.27 7.59 -0.39 0.00 12.77 3.30 3.53 -12.59 1.54 0.00 6.35 3.19 0.09 -26.00 1.84 0.00 19.88 4.10 -0.00 0.00 0.00 3.40 7.01 8.59 0.00 0.01 0.00 -3.30 6.99 8.69 -0.00 -0.00 0.00 0.00 5.05 2.27 -0.00 0.00 0.00 0.00 -8.86 6.08 0.00 0.00 -0.00 0.10 -6.14 2.92 0.00 0.00 -0.00 0.10 -6.14 2.92 -0.00 0.00 -0.00 0.00 -0.13 -1.74 0.00 -0.00 -0.00 0.01 0.78 2.48 -0.00 -0.00 0.04 0.02 -0.48 2.15 -0.00 0.00 -0.00 0.00 -0.18 0.48 0.00 0.00 0.00 0.20 -0.10 -0.02 -0.00 0.00 0.00 -0.20 -0.10 -0.02 -0.00 -0.00 -0.00 0.20 -0.10 -0.02 0.00 -0.00 0.00 -0.20 -0.10 -0.02 -0.00 0.00 -0.00 0.20 -0.09 -0.02 0.00 0.00 -0.00 -0.20 -0.10 -0.02 0.00 0.00 0.00 -0.20 -0.10 0.04 -0.00 0.01 0.00 0.20 -0.09 0.03 -0.00 -0.00 0.00 -2.80 7.18 9.09 19.44 0.02 0.07 -16.06 -0.97 -5.10 0.00 -0.00 -0.00 -0.37 -4.12 -0.50 54.65 -1.61 8.61 0.00 0.00 0.00 0.40 17.69 0.45 -25.58 -0.72 -0.67 -6.03 -5.23 21.55 -24.78 -0.70 -0.65 -3.91 -72.59 -10.65 -1.98 -0.27 1.89 -1.69 72.72 -1.93 -8.95 -0.46 2.32 21.27 -1.00 -6.51 -4.50 -0.02 0.02 21.19 1.81 -0.34 -2.60 -0.01 0.01 14.69 1.31 -0.17 -7.97 -0.33 -2.09 27.52 -12.37 -0.44 -4.50 -0.02 0.02 19.34 -1.71 0.31 -3.00 -0.01 0.01 14.91 -1.33 0.17 -8.73 0.03 0.04 28.54 0.10 -2.74 -5.10 -0.02 0.02 19.25 0.00 0.01 -3.10 -0.01 0.01 17.21 0.00 0.00 -7.05 -1.12 -4.03 13.22 -20.85 -4.29 -3.40 -0.01 0.01 18.28 -4.02 0.67 -2.10 -0.01 0.01 14.24 -3.14 0.41 -1.03 -0.35 0.79 0.00 0.00 0.00 -1.05 -2.14 1.66 0.05 38.98 12.56 -4.19 -0.71 1.47 -0.58 -1.00 -11.39 -3.79 -0.05 0.22 11.47 2.13 -7.13 2.80 7.18 9.09 -18.07 -0.89 2.74 14.84 0.13 -4.10 -0.00 -0.00 0.00 16.06 -0.98 -5.09 0.00 0.01 -0.00 0.31 -4.18 -0.50 -60.24 11.77 -14.22 0.00 0.00 0.00 -0.67 29.58 -0.53 25.58 -0.59 -0.69 3.20 -23.69 -16.45 24.78 -0.57 -0.67 1.25 -51.09 6.49 2.06 0.07 1.82 -1.04 51.15 0.17 1.01 -0.38 0.79 -0.01 -0.01 -0.00 0.99 -2.16 1.67 -3.12 43.42 -8.17 4.17 -0.82 1.49 -3.03 -0.18 10.59 3.79 -0.15 0.23 -13.27 2.30 8.27 8.93 -0.69 2.34 -23.19 1.58 6.71 4.50 -0.14 0.03 -21.51 1.80 0.34 2.60 -0.08 0.02 -14.11 1.26 0.15 8.73 -0.20 0.06 -23.71 0.12 4.55 5.10 -0.15 0.03 -20.70 0.00 0.00 3.10 -0.09 0.02 -16.65 0.00 0.00 7.97 -0.55 -2.06 -18.00 -8.54 3.32 4.50 -0.14 0.03 -17.54 -1.52 -0.25 3.00 -0.09 0.02 -12.95 -1.16 -0.14 7.03 -1.33 -4.01 -5.26 -16.13 8.13 3.40 -0.10 0.02 -16.26 -3.57 -0.54 2.10 -0.06 0.01 -16.92 -3.72 -0.57 0.00 -11.87 1.82 -0.00 -0.00 -0.00 -8.70 -7.18 -1.32 -0.22 5.73 -10.05 0.00 -37.30 0.16 -0.06 2.39 -0.06 0.00 -39.87 -3.21 0.00 0.00 0.00 0.00 0.00 0.00 2.73 -7.25 -14.31 8.70 -7.18 -1.32 2.76 2.21 -6.08 0.00 -37.20 0.26 0.01 -0.60 0.12 0.00 -39.87 -3.21 0.00 0.01 -0.00 0.00 0.00 0.00 -11.06 -2.90 -3.90
